# xmcd
#
# Track frame offsets:
#	150
#	12250
#	24578
#	37268
#	49791
#	62147
#	75172
#	87667
#
# Disc length: 1339 seconds
#
# Revision: 0
# Processed by: cddbd v1.5.2PL0 Copyright (c) Steve Scherf et al.
# Submitted via: dBpowerAMP V4.0
#
DISCID=5f053908
DTITLE=Damballa Wedo Singers - Voodoo
DYEAR=1900
DGENRE=Ritual
TTITLE0=Dja Keke Dja
TTITLE1=Ciye Ciye Ti Bobine Carre
TTITLE2=Jean Pierre Poungue
TTITLE3=Soleil Malade
TTITLE4=Ibo-lele
TTITLE5=Joue Kanga Joue
TTITLE6=Erzulie Nainah Oh
TTITLE7=Moundongue Oh Ye Ye Ye
EXTD=
EXTT0=
EXTT1=
EXTT2=
EXTT3=
EXTT4=
EXTT5=
EXTT6=
EXTT7=
PLAYORDER=
